HIERARCHY
ROOT hips
{
  OFFSET 0 10.6860622 2.3727825e-15
  CHANNELS 6 Xposition Yposition Zposition Yrotation Xrotation Zrotation
  JOINT leftUpperLeg
  {
    OFFSET 0.6642549969 -0.9402397400000004 0
    CHANNELS 3 Yrotation Xrotation Zrotation
    JOINT leftLowerLeg
    {
      OFFSET 0 -3.997221335632195 0
      CHANNELS 3 Yrotation Xrotation Zrotation
      JOINT leftFoot
      {
        OFFSET -0.13777839790000004 -4.6145792000000005 -0.22186036399999998
        CHANNELS 3 Yrotation Xrotation Zrotation
        JOINT leftToes
        {
          OFFSET -0.03777410834999995 -0.9130806927000008 0.85230013
          CHANNELS 3 Yrotation Xrotation Zrotation
          End Site
          {
            OFFSET -0.03777410834999995 -0.9130806927000008 0.85230013
          }
        }
      }
    }
  }
  JOINT rightUpperLeg
  {
    OFFSET -0.6642778626 -0.9402397400000004 0
    CHANNELS 3 Yrotation Xrotation Zrotation
    JOINT rightLowerLeg
    {
      OFFSET 0 -3.997221452859387 0
      CHANNELS 3 Yrotation Xrotation Zrotation
      JOINT rightFoot
      {
        OFFSET 0.1377926176 -4.6145792000000005 -0.22185782299999995
        CHANNELS 3 Yrotation Xrotation Zrotation
        JOINT rightToes
        {
          OFFSET 0.037780746850000047 -0.9130806927000008 0.85230167
          CHANNELS 3 Yrotation Xrotation Zrotation
          End Site
          {
            OFFSET 0.037780746850000047 -0.9130806927000008 0.85230167
          }
        }
      }
    }
  }
  JOINT spine
  {
    OFFSET 0 0.13988381660000015 0
    CHANNELS 3 Yrotation Xrotation Zrotation
    JOINT chest
    {
      OFFSET 0 0.6191039003973773 0
      CHANNELS 3 Yrotation Xrotation Zrotation
      JOINT upperChest
      {
        OFFSET 0 0.9855186130586943 0
        CHANNELS 3 Yrotation Xrotation Zrotation
        JOINT leftShoulder
        {
          OFFSET 0.1807663869 1.5087829790000005 0
          CHANNELS 3 Yrotation Xrotation Zrotation
          JOINT leftUpperArm
          {
            OFFSET 0.5985063006419806 0 0
            CHANNELS 3 Yrotation Xrotation Zrotation
            JOINT leftLowerArm
            {
              OFFSET 2.2993332369501065 0 0
              CHANNELS 3 Yrotation Xrotation Zrotation
              JOINT leftHand
              {
                OFFSET 2.395047042602395 0 0
                CHANNELS 3 Yrotation Xrotation Zrotation
                JOINT leftIndexProximal
                {
                  OFFSET 0.5766295810000004 0.04556643899499946 0.17265095988184
                  CHANNELS 3 Yrotation Xrotation Zrotation
                  JOINT leftIndexIntermediate
                  {
                    OFFSET 0.2957229000000008 -0.019352197700001517 -0.007932640616999987
                    CHANNELS 3 Yrotation Xrotation Zrotation
                    JOINT leftIndexDistal
                    {
                      OFFSET 0.19008243099999922 -0.012484908149998475 -0.002786250786000012
                      CHANNELS 3 Yrotation Xrotation Zrotation
                      End Site
                      {
                        OFFSET 0.19008243099999922 -0.012484908149998475 -0.002786250786000012
                      }
                    }
                  }
                }
                JOINT leftMiddleProximal
                {
                  OFFSET 0.5834975091000001 0.0524350405149987 0.02204081888183999
                  CHANNELS 3 Yrotation Xrotation Zrotation
                  JOINT leftMiddleIntermediate
                  {
                    OFFSET 0.33880573540000003 -0.019871473270000717 -0.00000971183179999946
                    CHANNELS 3 Yrotation Xrotation Zrotation
                    JOINT leftMiddleDistal
                    {
                      OFFSET 0.20676022730000088 -0.012221336379999448 0.0001471936708000235
                      CHANNELS 3 Yrotation Xrotation Zrotation
                      End Site
                      {
                        OFFSET 0.20676022730000088 -0.012221336379999448 0.0001471936708000235
                      }
                    }
                  }
                }
                JOINT leftLittleProximal
                {
                  OFFSET 0.5344154683999995 -0.012880921405001189 -0.24414037221816004
                  CHANNELS 3 Yrotation Xrotation Zrotation
                  JOINT leftLittleIntermediate
                  {
                    OFFSET 0.21758961730000093 -0.011650919939999227 0.011893592810000034
                    CHANNELS 3 Yrotation Xrotation Zrotation
                    JOINT leftLittleDistal
                    {
                      OFFSET 0.1475273964999999 -0.008152365682999818 0.006001092492999946
                      CHANNELS 3 Yrotation Xrotation Zrotation
                      End Site
                      {
                        OFFSET 0.1475273964999999 -0.008152365682999818 0.006001092492999946
                      }
                    }
                  }
                }
                JOINT leftRingProximal
                {
                  OFFSET 0.5799399463000003 0.026911854694997794 -0.12150566991816003
                  CHANNELS 3 Yrotation Xrotation Zrotation
                  JOINT leftRingIntermediate
                  {
                    OFFSET 0.26167887460000006 -0.013480186499999602 0.010996293000000053
                    CHANNELS 3 Yrotation Xrotation Zrotation
                    JOINT leftRingDistal
                    {
                      OFFSET 0.17667108799999987 -0.008990287899999228 0.0055541023999999065
                      CHANNELS 3 Yrotation Xrotation Zrotation
                      End Site
                      {
                        OFFSET 0.17667108799999987 -0.008990287899999228 0.0055541023999999065
                      }
                    }
                  }
                }
                JOINT leftThumbProximal
                {
                  OFFSET 0.11018806699999972 -0.09448718900500053 0.17047963138184
                  CHANNELS 3 Yrotation Xrotation Zrotation
                  JOINT leftThumbIntermediate
                  {
                    OFFSET 0.31062601459999983 -0.08126270900000132 0.15443142000000007
                    CHANNELS 3 Yrotation Xrotation Zrotation
                    JOINT leftThumbDistal
                    {
                      OFFSET 0.21627175790000086 -0.08833193599999878 0.018771167799999988
                      CHANNELS 3 Yrotation Xrotation Zrotation
                      End Site
                      {
                        OFFSET 0.21627175790000086 -0.08833193599999878 0.018771167799999988
                      }
                    }
                  }
                }
              }
            }
          }
        }
        JOINT neck
        {
          OFFSET 0 1.5463305265074576 0
          CHANNELS 3 Yrotation Xrotation Zrotation
          JOINT head
          {
            OFFSET 0 0.8456443600000344 0
            CHANNELS 3 Yrotation Xrotation Zrotation
            JOINT leftEye
            {
              OFFSET 0.30408573140000006 0.5104519199999995 0.1276382305
              CHANNELS 3 Yrotation Xrotation Zrotation
              End Site
              {
                OFFSET 0.30408573140000006 0.5104519199999995 0.1276382305
              }
            }
            JOINT rightEye
            {
              OFFSET -0.30409491089999996 0.5104519199999995 0.1276379445
              CHANNELS 3 Yrotation Xrotation Zrotation
              End Site
              {
                OFFSET -0.30409491089999996 0.5104519199999995 0.1276379445
              }
            }
            JOINT jaw
            {
              OFFSET -3.155239131000001e-7 -0.11984121820000082 0.60178107
              CHANNELS 3 Yrotation Xrotation Zrotation
              End Site
              {
                OFFSET -3.155239131000001e-7 -0.11984121820000082 0.60178107
              }
            }
          }
        }
        JOINT rightShoulder
        {
          OFFSET -0.1807303465 1.5087829790000005 0
          CHANNELS 3 Yrotation Xrotation Zrotation
          JOINT rightUpperArm
          {
            OFFSET -0.5985063796536958 0 0
            CHANNELS 3 Yrotation Xrotation Zrotation
            JOINT rightLowerArm
            {
              OFFSET -2.2993322059002854 0 0
              CHANNELS 3 Yrotation Xrotation Zrotation
              JOINT rightHand
              {
                OFFSET -2.395045314457259 0 0
                CHANNELS 3 Yrotation Xrotation Zrotation
                JOINT rightIndexProximal
                {
                  OFFSET -0.5764487688300002 0.0441371204405987 0.17361932004999997
                  CHANNELS 3 Yrotation Xrotation Zrotation
                  JOINT rightIndexIntermediate
                  {
                    OFFSET -0.29573011380000047 -0.01934826376999843 -0.007698921482999974
                    CHANNELS 3 Yrotation Xrotation Zrotation
                    JOINT rightIndexDistal
                    {
                      OFFSET -0.19008373999999884 -0.012503266380000655 -0.0026365778999999897
                      CHANNELS 3 Yrotation Xrotation Zrotation
                      End Site
                      {
                        OFFSET -0.19008373999999884 -0.012503266380000655 -0.0026365778999999897
                      }
                    }
                  }
                }
                JOINT rightMiddleProximal
                {
                  OFFSET -0.5834852037300005 0.05211639405060153 0.02307162440000001
                  CHANNELS 3 Yrotation Xrotation Zrotation
                  JOINT rightMiddleIntermediate
                  {
                    OFFSET -0.33880114510000003 -0.019952774050000954 0.0002455003561999819
                    CHANNELS 3 Yrotation Xrotation Zrotation
                    JOINT rightMiddleDistal
                    {
                      OFFSET -0.20675694929999955 -0.012273788999999091 0.00030209124000002766
                      CHANNELS 3 Yrotation Xrotation Zrotation
                      End Site
                      {
                        OFFSET -0.20675694929999955 -0.012273788999999091 0.00030209124000002766
                      }
                    }
                  }
                }
                JOINT rightLittleProximal
                {
                  OFFSET -0.5346811737299992 -0.011214256288399227 -0.24363941305000003
                  CHANNELS 3 Yrotation Xrotation Zrotation
                  JOINT rightLittleIntermediate
                  {
                    OFFSET -0.21757715980000092 -0.011771559690000988 0.01201554387
                    CHANNELS 3 Yrotation Xrotation Zrotation
                    JOINT rightLittleDistal
                    {
                      OFFSET -0.1475201849000004 -0.00822055339600003 0.006082065407000015
                      CHANNELS 3 Yrotation Xrotation Zrotation
                      End Site
                      {
                        OFFSET -0.1475201849000004 -0.00822055339600003 0.006082065407000015
                      }
                    }
                  }
                }
                JOINT rightRingProximal
                {
                  OFFSET -0.5800810755299999 0.027657985680600072 -0.12066365025000003
                  CHANNELS 3 Yrotation Xrotation Zrotation
                  JOINT rightRingIntermediate
                  {
                    OFFSET -0.26166445029999974 -0.013623118409999302 0.011164098990000045
                    CHANNELS 3 Yrotation Xrotation Zrotation
                    JOINT rightRingDistal
                    {
                      OFFSET -0.17666387530000027 -0.009072900100000503 0.005668185599999959
                      CHANNELS 3 Yrotation Xrotation Zrotation
                      End Site
                      {
                        OFFSET -0.17666387530000027 -0.009072900100000503 0.005668185599999959
                      }
                    }
                  }
                }
                JOINT rightThumbProximal
                {
                  OFFSET -0.10997596379000074 -0.09577489355940072 0.16989765924999997
                  CHANNELS 3 Yrotation Xrotation Zrotation
                  JOINT rightThumbIntermediate
                  {
                    OFFSET -0.31036620999999986 -0.08229339117999834 0.15440884469999996
                    CHANNELS 3 Yrotation Xrotation Zrotation
                    JOINT rightThumbDistal
                    {
                      OFFSET -0.21631306399999906 -0.08825326400000111 0.018656797720000014
                      CHANNELS 3 Yrotation Xrotation Zrotation
                      End Site
                      {
                        OFFSET -0.21631306399999906 -0.08825326400000111 0.018656797720000014
                      }
                    }
                  }
                }
              }
            }
          }
        }
      }
    }
  }
}
MOTION
Frames: 8
Frame Time: 0.03333333333333333
0 11.682712981546562 0 0 0 0 0 0 -5.826343164929014 -0.3712483961610101 -3.6333298826370974 5.838118207697276 0 0 0 0 0 0 0 0 5.826343164929014 0.3712483961610101 -3.6333298826370974 -5.838118207697276 0 0 0 0 0 0 0 -4.610651315171937 0 0 3.0831277533083026 0 0 0 0 0 1.5275236235667615 0 0 0 0 0 0 0 0 0 0 0 0 0 0 0 0 0 0 0 0 0 0 0 0 0 0 0 0 0 0 0 0 0 0 0 0 0 0 0 0 0 0 0 0 0 0 0 0 0 0 0 0 0 0 0 0 1.5275236235667615 0 0 0 0 0 0 0 0 0 0 0 0 0 0 1.5275236235667615 0 0 0 0 0 0 0 0 0 0 0 0 0 0 0 0 0 0 0 0 0 0 0 0 0 0 0 0 0 0 0 0 0 0 0 0 0 0 0 0 0 0 0 0 0 0 0 0 0 0 0 0 0 0 0
1.331003168485228 -7.238693077504076 -2.9401401741558573 -67.00379863440274 0 0 11.19642432617641 -45.95878688894488 43.993677788951196 176.77158955030248 38.26906751219665 178.90414409121274 14.571653538495724 55.43969734296263 15.27606218585707 0 0 0 -0.7494982952396104 -49.43202835345107 -14.086048679364797 -179.435865704363 42.479067442319966 168.26034152837033 -14.579842739922652 55.438673923469814 -15.284262417403813 0 0 0 13.595716373179611 -4.940650964565871 -0.1719990909061156 15.464813368508137 14.783550222883976 4.568051172210851 0 0 0 -60.03846736911073 -8.329734746592184 -13.505173029861117 -32.64068464979464 -0.43592915679949984 -11.500151133412878 -42.27123629412241 2.186284103391025 -9.912629000314409 0.5971023490715391 30.991525937486934 1.165365888676016 0 0 0 0 0 0 0 0 0 0 0 0 0 0 0 0 0 0 0 0 0 0 0 0 0 0 0 0 0 0 0 0 0 0 0 0 0 0 0 0 0 0 0 0 0 -0.04474163856680974 2.260114689097365 -0.15710048264454582 -0.005271018160986575 -0.15211923040064107 0.019238995087940306 0 0 0 0 0 0 0 0 0 18.609592537472707 -5.795976667264541 30.953854120101166 23.001645455519004 -3.9505797572562398 19.09402152928885 23.789453772392676 -1.9730040351466702 3.822737454759442 -0.19631069774598592 -30.58473863283537 -30.90054435038395 0 0 0 0 0 0 0 0 0 0 0 0 0 0 0 0 0 0 0 0 0 0 0 0 0 0 0 0 0 0 0 0 0 0 0 0 0 0 0 0 0 0 0 0 0
1.331003168485228 -7.238693077504076 -2.9401401741558573 -67.0038062559774 0 0 11.196422870531922 -45.95879671407342 43.99367943402542 176.77158955030248 38.26906751219665 178.90414409121274 14.571653538495724 55.43969734296263 15.27606218585707 0 0 0 -0.7494982952396104 -49.43202835345107 -14.086048679364797 -179.43586436592815 42.479067442319966 168.26034266177678 -14.579842739922652 55.438673923469814 -15.284262417403813 0 0 0 13.578198415296734 -4.570092043677321 -0.08498013125534255 15.407366165575084 14.255148906310525 4.403111834279918 0 0 0 -59.72928876413146 -8.155589554557844 -13.623430302520699 -32.64068464979464 -0.43592872990032067 -11.500151970070519 -42.47317700843969 2.1512077277486417 -9.972609671937088 0.6518307077792066 31.005844823372602 0.8920239224593003 0 0 0 0 0 0 0 0 0 0 0 0 0 0 0 0 0 0 0 0 0 0 0 0 0 0 0 0 0 0 0 0 0 0 0 0 0 0 0 0 0 0 0 0 0 -0.05306921509712176 2.9851975171004557 -0.3171768659671747 -0.006485088265993097 -0.30157737629847237 0.0409531351606016 0 0 0 0 0 0 0 0 0 18.488083561879165 -5.693357640214869 30.96126504187535 23.116074140944384 -3.9951257210800986 19.29015688838553 23.991233725315404 -2.020540068115756 4.951991292021453 0.2734195813776332 -30.0015024511763 -33.34368196868937 0 0 0 0 0 0 0 0 0 0 0 0 0 0 0 0 0 0 0 0 0 0 0 0 0 0 0 0 0 0 0 0 0 0 0 0 0 0 0 0 0 0 0 0 0
1.331003168485228 -7.238693077504076 -2.9401401741558573 -67.00379863440274 0 0 11.19642432617641 -45.95878688894488 43.993677788951196 176.77158718680465 38.26908491149744 178.90414193893915 14.571653538495724 55.43969734296263 15.27606218585707 0 0 0 -0.7494982952396104 -49.43202835345107 -14.086048679364797 -179.43586386741546 42.479085964264115 168.26034323557099 -14.579842739922652 55.438673923469814 -15.284262417403813 0 0 0 13.561249181721776 -4.199463062307847 0.0018923012977273273 15.351609418750469 13.72645796559064 4.2390552688132335 0 0 0 -59.42057893443772 -7.980801172353688 -13.740698780071572 -32.64067993191516 -0.43592840972593633 -11.500151133412878 -42.675066791276556 2.1159189968322636 -10.032466030195408 0.7064907736433155 31.020389020851503 0.6186365233847466 0 0 0 0 0 0 0 0 0 0 0 0 0 0 0 0 0 0 0 0 0 0 0 0 0 0 0 0 0 0 0 0 0 0 0 0 0 0 0 0 0 0 0 0 0 -0.06344789303377153 3.7112408935483376 -0.47769515313472954 -0.007755235604492164 -0.4510424970128353 0.06267204874916714 0 0 0 0 0 0 0 0 0 18.366599395852177 -5.590717901184652 30.968454981691384 23.23035373194897 -4.040062254671132 19.48622284738987 24.192256327208455 -2.0721005381054387 6.082371913667122 0.7133647381952128 -29.39877969635317 -35.7779646231947 0 0 0 0 0 0 0 0 0 0 0 0 0 0 0 0 0 0 0 0 0 0 0 0 0 0 0 0 0 0 0 0 0 0 0 0 0 0 0 0 0 0 0 0 0
1.331003168485228 -7.238693077504076 -2.9401401741558573 -67.00379863440274 0 0 11.196422870531922 -45.95879671407342 43.99367943402542 176.77158955030248 38.26906751219665 178.90414409121274 14.571653538495724 55.43969734296263 15.27606218585707 0 0 0 -0.7494982952396104 -49.43202835345107 -14.086048679364797 -179.435865704363 42.479067442319966 168.26034152837033 -14.579842739922652 55.438673923469814 -15.284262417403813 0 0 0 13.544873133509805 -3.8287708746784137 0.08862391669228467 15.297516273870697 13.197502928081068 4.075855561709296 0 0 0 -59.11234422902007 -7.805373978781815 -13.856977081669656 -32.64068464979464 -0.43592915679949984 -11.500151133412878 -42.876934757874785 2.080419193377694 -10.092200222082036 0.7610821568042172 31.03516261966938 0.3452060105414871 0 0 0 0 0 0 0 0 0 0 0 0 0 0 0 0 0 0 0 0 0 0 0 0 0 0 0 0 0 0 0 0 0 0 0 0 0 0 0 0 0 0 0 0 0 -0.07589295806609225 4.438180006088052 -0.6386953743769076 -0.009082489538097684 -0.6005156234012121 0.08439619708424792 0 0 0 0 0 0 0 0 0 18.245145376350937 -5.488058418428608 30.975433540094738 23.344494022940633 -4.085391590096278 19.68221682477572 24.39241235814368 -2.127665584361579 7.213641328473081 1.1225856915530101 -28.77807716292104 -38.20157375584359 0 0 0 0 0 0 0 0 0 0 0 0 0 0 0 0 0 0 0 0 0 0 0 0 0 0 0 0 0 0 0 0 0 0 0 0 0 0 0 0 0 0 0 0 0
1.331003168485228 -7.238693077504076 -2.9401401741558573 -67.00379863440274 0 0 11.196427438719006 -45.95879671407342 43.99368107909993 176.77158955030248 38.26906751219665 178.90414409121274 14.571655053119393 55.43969734296263 15.276063771997581 0 0 0 -0.7494982952396104 -49.43202835345107 -14.086049952682512 -179.43586436592815 42.479067442319966 168.26034266177678 -14.579842739922652 55.438673923469814 -15.284262417403813 0 0 0 13.529060754466311 -3.458026147783807 0.17522074248066677 15.245071760354646 12.668314107781983 3.9134857917728403 0 0 0 -58.804558729963965 -7.629316618664224 -13.972259633903551 -32.64068464979464 -0.43592872990032067 -11.500151970070519 -43.078757102825804 2.0447066094946647 -10.151804683298305 0.8156004295635746 31.050149782528326 0.07173476195692072 0 0 0 0 0 0 0 0 0 0 0 0 0 0 0 0 0 0 0 0 0 0 0 0 0 0 0 0 0 0 0 0 0 0 0 0 0 0 0 0 0 0 0 0 0 -0.09042067228792383 5.165948029074361 -0.800219538555365 -0.01046687875652045 -0.7499956120707602 0.10612500522156164 0 0 0 0 0 0 0 0 0 18.123712184350616 -5.385378015189224 30.982186774882155 23.458488188635254 -4.131111253963788 19.87813644405255 24.591579572500073 -2.1872130452730754 8.345563161059196 1.5003155047347314 -28.140976991350712 -40.61278163207022 0 0 0 0 0 0 0 0 0 0 0 0 0 0 0 0 0 0 0 0 0 0 0 0 0 0 0 0 0 0 0 0 0 0 0 0 0 0 0 0 0 0 0 0 0
1.331003168485228 -7.238693077504076 -2.9401401741558573 -67.00379863440274 0 0 11.196426032698659 -45.95878197638126 43.99367614387728 176.77158955030248 38.26906751219665 178.90414409121274 14.571650509249311 55.439685302579036 15.276059013577004 0 0 0 -0.7494982265499488 -49.432017851118836 -14.086048669954524 -179.43586386741546 42.479085964264115 168.26034323557099 -14.579838252544942 55.43866790343367 -15.28425779176725 0 0 0 13.51381684523676 -3.0872367314692326 0.2616873321718103 15.194268689363243 12.138921341524076 3.751924013378739 0 0 0 -58.49724520992887 -7.452639411003184 -14.086542557629151 -32.64068464979464 -0.43592915679949984 -11.500151133412878 -43.28054364611194 2.008785303555695 -10.211287218769517 0.8700463559780028 31.065366558940756 -0.20177247723602626 0 0 0 0 0 0 0 0 0 0 0 0 0 0 0 0 0 0 0 0 0 0 0 0 0 0 0 0 0 0 0 0 0 0 0 0 0 0 0 0 0 0 0 0 0 -0.10704831889654445 5.894482425549864 -0.9623071863859075 -0.01190843842082757 -0.8994813998071655 0.1278599396980485 0 0 0 0 0 0 0 0 0 18.002312207706694 -5.2826772298925375 30.9887225115254 23.57233273979182 -4.177220058438817 20.073978667089794 24.78964748909256 -2.2507144026759147 9.477897287916738 1.8459582728979258 -27.4891385041614 -43.00996520541702 0 0 0 0 0 0 0 0 0 0 0 0 0 0 0 0 0 0 0 0 0 0 0 0 0 0 0 0 0 0 0 0 0 0 0 0 0 0 0 0 0 0 0 0 0
1.331003168485228 -7.238693077504076 -2.9401401741558573 -67.00379863440274 0 0 11.19642432617641 -45.95878688894488 43.993677788951196 176.77158955030248 38.26906751219665 178.90414409121274 14.571653538495724 55.43969734296263 15.27606218585707 0 0 0 -0.7494982952396104 -49.43202835345107 -14.086048679364797 -179.435865704363 42.479067442319966 168.26034152837033 -14.579842739922652 55.438673923469814 -15.284262417403813 0 0 0 13.49913636972931 -2.7164138649665555 0.3480304367027622 15.145076071269216 11.609353150781184 3.5911417181198573 0 0 0 -58.19041339249409 -7.275354345998269 -14.199831133610838 -32.64068464979464 -0.43592915679949984 -11.500151133412878 -43.482292361330224 1.9726544210533146 -10.270639784305887 0.9244162387818211 31.080801097542967 -0.4753121302778414 0 0 0 0 0 0 0 0 0 0 0 0 0 0 0 0 0 0 0 0 0 0 0 0 0 0 0 0 0 0 0 0 0 0 0 0 0 0 0 0 0 0 0 0 0 -0.12579519708854497 6.6237115276003165 -1.125000938916028 -0.013406201174440621 -1.0489729908489167 0.14959943503288076 0 0 0 0 0 0 0 0 0 17.880934516680437 -5.179959600615968 30.99503974745072 23.68602494338667 -4.223717673580795 20.269745259349627 24.986483163850192 -2.3181349974489422 10.610403414503388 2.159092590285751 -26.824281340118223 -45.39161265831113 0 0 0 0 0 0 0 0 0 0 0 0 0 0 0 0 0 0 0 0 0 0 0 0 0 0 0 0 0 0 0 0 0 0 0 0 0 0 0 0 0 0 0 0 0
